<svg xmlns="http://www.w3.org/2000/svg" width="74" height="68" fill="none"><g fill="#FC912D"><path d="M47.79 7.313a1.083 1.083 0 1 0 0-2.165 1.083 1.083 0 0 0 0 2.165ZM52.441 7.313a1.083 1.083 0 1 0 0-2.165 1.083 1.083 0 0 0 0 2.165Z"/></g><g fill="#FC912D"><path d="M20.476 7.314h19.48a1.084 1.084 0 0 0 0-2.168h-19.48a1.084 1.084 0 0 0 0 2.168Z"/><path d="M71.12 56.37h-1.902v-7.101a1.084 1.084 0 0 0-2.168 0v7.1H6.95V19.764c0-1.475 1.2-2.674 2.674-2.674h5.144v2.92h-2.822a2.078 2.078 0 0 0-2.075 2.076v29.289c0 1.144.93 2.075 2.075 2.075h50.108a2.078 2.078 0 0 0 2.075-2.075V22.085a2.078 2.078 0 0 0-2.075-2.076H59.23v-2.92h5.145c1.474 0 2.674 1.2 2.674 2.674v24.435a1.084 1.084 0 0 0 2.168 0V19.763a4.847 4.847 0 0 0-4.842-4.842h-5.145V2.991A2.225 2.225 0 0 0 57.01.77H16.99a2.225 2.225 0 0 0-2.223 2.222v11.93H9.624a4.847 4.847 0 0 0-4.842 4.842V56.37H2.88A2.883 2.883 0 0 0 0 59.25c0 4.4 3.58 7.982 7.982 7.982h58.036c4.401 0 7.982-3.581 7.982-7.983a2.883 2.883 0 0 0-2.88-2.88ZM12.04 22.177h2.73v29.104h-2.73V22.177Zm49.922 0v29.104h-2.73V22.177h2.73Zm-44.97-19.24H57.01c.03 0 .055.024.055.055v6.532H25.416a1.084 1.084 0 0 0 0 2.168h31.648v39.59H16.936v-39.59h3.413a1.084 1.084 0 0 0 0-2.168h-3.413V2.991c0-.03.025-.054.055-.054Zm9.56 55.6H47.45v1.09c0 .6-.49 1.09-1.09 1.09H27.64c-.6 0-1.09-.49-1.09-1.09v-1.09Zm39.467 6.527H7.982a5.82 5.82 0 0 1-5.814-5.815c0-.392.32-.711.712-.711h21.502v1.089a3.261 3.261 0 0 0 3.258 3.258h18.72a3.261 3.261 0 0 0 3.258-3.258v-1.09H71.12c.393 0 .712.32.712.712a5.82 5.82 0 0 1-5.814 5.815Z"/><path d="m22.548 31.811-.786.203a3.258 3.258 0 0 0-2.343 3.97l.543 2.106a3.265 3.265 0 0 0 3.157 2.447c.623 0 .971-.163 1.727-.34.55.641 1.387.995 2.255.912l3.801 5.762c.395.6 1.06.945 1.755.945.43 0 .617-.108 1.755-.384a2.101 2.101 0 0 0 1.511-2.56l-1.45-5.626 1.548-.398a12.931 12.931 0 0 1 11.677 2.716l.013.053c.21.811.721 1.492 1.442 1.918a3.115 3.115 0 0 0 2.376.336 3.114 3.114 0 0 0 1.917-1.443 3.113 3.113 0 0 0 .336-2.375l-5.781-22.44a3.114 3.114 0 0 0-1.442-1.918 3.114 3.114 0 0 0-2.376-.336 3.114 3.114 0 0 0-1.917 1.442 3.114 3.114 0 0 0-.336 2.376l.013.052a12.93 12.93 0 0 1-8.91 8.021l-8.512 2.193a2.644 2.644 0 0 0-1.973 2.368Zm.843 6.523a1.093 1.093 0 0 1-1.33-.785l-.543-2.106a1.09 1.09 0 0 1 .785-1.33l.651-.167 1.088 4.22-.651.168Zm10.416 7.015-1.121.289-3.345-5.07 3.033-.78 1.433 5.561Zm10.325-27.446a.961.961 0 0 1 .833-.475c.43 0 .824.29.936.725l5.782 22.44a.968.968 0 0 1-1.872.483l-5.782-22.44a.961.961 0 0 1 .103-.733Zm-1.353 4.572 4.083 15.844c-5.845-3.405-11.41-1.537-11.54-1.53l-1.905-7.4c.117-.055 5.885-1.099 9.362-6.915Zm-17.717 9.067 6.255-1.611 1.907 7.399-6.255 1.611c-.455.117-.57-.343-.581-.358l-1.666-6.464a.474.474 0 0 1 .34-.576Z"/></g></svg>