<svg xmlns="http://www.w3.org/2000/svg" width="66" height="54" fill="none"><path fill="#FD983A" d="M62.219.438H3.78A3.723 3.723 0 0 0 .062 4.155v37.188a3.723 3.723 0 0 0 3.72 3.718h21.273L23.78 48.25h-5.655a1.062 1.062 0 0 0-1.063 1.063v2.124h-6.375a1.062 1.062 0 1 0 0 2.126h44.626a1.062 1.062 0 1 0 0-2.126h-6.376v-2.124a1.062 1.062 0 0 0-1.062-1.063H42.22l-1.275-3.188h21.274a3.723 3.723 0 0 0 3.718-3.718V4.156A3.723 3.723 0 0 0 62.22.438ZM46.812 50.374v1.063H19.189v-1.063h27.625ZM26.07 48.25l1.275-3.188h11.31l1.275 3.188H26.07Zm37.742-6.906a1.595 1.595 0 0 1-1.593 1.593H3.78a1.595 1.595 0 0 1-1.594-1.593v-2.657h61.626v2.657Zm0-4.782H2.188V4.157A1.595 1.595 0 0 1 3.78 2.563H62.22a1.595 1.595 0 0 1 1.593 1.593v32.407Z"/><path fill="#FD983A" d="M28.167 27.888a1.063 1.063 0 0 0 1.471-.305l8.367-12.75a1.063 1.063 0 1 0-1.776-1.167l-8.367 12.75a1.063 1.063 0 0 0 .305 1.472ZM39.757 27.817a1.062 1.062 0 0 0 1.497-.137l5.312-6.375a1.063 1.063 0 0 0 0-1.36l-5.312-6.375a1.062 1.062 0 1 0-1.633 1.36l4.746 5.695-4.746 5.695a1.063 1.063 0 0 0 .136 1.497ZM24.746 27.68a1.063 1.063 0 1 0 1.633-1.36l-4.746-5.695 4.746-5.695a1.062 1.062 0 1 0-1.633-1.36l-5.312 6.375a1.062 1.062 0 0 0 0 1.36l5.312 6.375Z"/></svg>