<svg xmlns="http://www.w3.org/2000/svg" width="74" height="74" fill="none"><g fill="#FC912D"><path d="M32.375 38.156h9.25v2.313h-9.25v-2.313Z"/><path d="M35.844 34.688h2.312v9.25h-2.312v-9.25ZM65.906 38.156h2.313v2.313h-2.313v-2.313ZM56.656 38.156h2.313v2.313h-2.313v-2.313ZM61.281 33.531h2.313v2.313H61.28V33.53ZM61.281 42.781h2.313v2.313H61.28V42.78ZM10.66 20.379l-5.203-6.504 5.203-6.504 1.805 1.445-4.047 5.059 4.047 5.059-1.805 1.445ZM28.653 20.379l-1.806-1.445 4.048-5.059-4.048-5.059 1.806-1.445 5.202 6.504-5.202 6.504ZM14.738 17.738l8.096-9.248 1.74 1.522-8.096 9.249-1.74-1.523ZM9.25 50.875H4.625V46.25h2.313v2.313H9.25v2.312Z"/><path d="M70.531 2.313H3.47A3.469 3.469 0 0 0 0 5.78v46.25A3.469 3.469 0 0 0 3.469 55.5H27.75v5.781a3.469 3.469 0 0 1-3.469 3.469H18.5v6.938h37V64.75h-5.781a3.469 3.469 0 0 1-3.469-3.469V55.5h24.281A3.469 3.469 0 0 0 74 52.031V5.781a3.469 3.469 0 0 0-3.469-3.468Zm-17.344 64.75v2.312H20.813v-2.313h32.374ZM37 62.486a3.469 3.469 0 0 0 3.469-3.469V55.5h3.468v5.781a5.724 5.724 0 0 0 1.187 3.469H28.876a5.724 5.724 0 0 0 1.186-3.469V55.5h3.47v3.517A3.469 3.469 0 0 0 37 62.487Zm-1.156-3.469V55.5h2.312v3.517a1.156 1.156 0 0 1-2.312 0Zm35.843-6.986c0 .639-.517 1.157-1.156 1.157H3.47a1.156 1.156 0 0 1-1.156-1.157V41.625h23.356A11.553 11.553 0 0 0 47 45.094h5.435a11.532 11.532 0 0 0 19.252 1.126v5.811Zm-9.25-3.468a9.198 9.198 0 0 1-8.276-5.141l-.32-.64h-8.244l-.32.64A9.25 9.25 0 1 1 37 30.062h25.438a9.25 9.25 0 0 1 9.25 9.25 9.25 9.25 0 0 1-9.25 9.25Zm9.25-16.158a11.54 11.54 0 0 0-9.25-4.655H37c-6.383.007-11.556 5.18-11.563 11.563H2.313V5.78c0-.638.518-1.156 1.157-1.156H70.53c.639 0 1.156.518 1.156 1.156v26.624Z"/><path d="M47.406 38.156h4.625v2.313h-4.625v-2.313ZM34.688 9.25h9.25v2.313h-9.25V9.25ZM48.563 9.25h18.5v2.313h-18.5V9.25ZM50.875 13.875h16.188v2.313H50.874v-2.313ZM37 13.875h9.25v2.313H37v-2.313ZM34.688 18.5h23.124v2.313H34.689V18.5ZM62.438 18.5h4.624v2.313h-4.624V18.5ZM6.938 23.125H18.5v2.313H6.937v-2.313ZM23.125 23.125h21.969v2.313H23.125v-2.313ZM48.563 23.125h18.5v2.313h-18.5v-2.313ZM6.938 27.75h18.5v2.313h-18.5V27.75ZM6.938 32.375h9.25v2.313h-9.25v-2.313ZM18.5 32.375h4.625v2.313H18.5v-2.313Z"/></g></svg>