<svg xmlns="http://www.w3.org/2000/svg" width="68" height="68" fill="none"><path fill="#FC912D" d="M31.61 49.338a.996.996 0 1 0 0 1.993h4.78a.996.996 0 1 0 0-1.993h-4.78ZM11.953 33.872h6.584a2.791 2.791 0 0 0 2.602 1.793c1.187 0 2.2-.747 2.602-1.793h1.316a.996.996 0 1 0 0-1.993h-1.316a2.791 2.791 0 0 0-2.602-1.793c-1.186 0-2.2.747-2.602 1.793h-6.584a.996.996 0 1 0 0 1.993Zm9.186-1.793a.798.798 0 1 1-.001 1.595.798.798 0 0 1 .001-1.595ZM11.953 28.16h1.272a2.791 2.791 0 0 0 2.602 1.794c1.186 0 2.2-.747 2.602-1.793h6.628a.996.996 0 1 0 0-1.992H18.43a2.791 2.791 0 0 0-2.602-1.794c-1.187 0-2.2.747-2.602 1.794h-1.272a.996.996 0 1 0 0 1.992Zm3.874-1.792a.798.798 0 1 1-.002 1.595.798.798 0 0 1 .002-1.595ZM25.257 18.997a.996.996 0 1 0 0-1.993.996.996 0 0 0 0 1.993ZM22.512 18.997a.996.996 0 1 0 0-1.993.996.996 0 0 0 0 1.993ZM19.767 18.997a.996.996 0 1 0 0-1.993.996.996 0 0 0 0 1.993Z"/><path fill="#FC912D" d="M65.012 6.705h-.373l.278-.278a2.14 2.14 0 0 0 0-3.023l-2.18-2.18a2.14 2.14 0 0 0-3.024 0l-5.48 5.48H2.987A2.992 2.992 0 0 0 0 9.694v41.366a3.656 3.656 0 0 0 3.652 3.653h23.594v7.046h-4.8a2.327 2.327 0 0 0-2.325 2.324v.996a2.327 2.327 0 0 0 2.324 2.324h23.11a2.327 2.327 0 0 0 2.324-2.325v-.995a2.327 2.327 0 0 0-2.324-2.324h-4.8v-7.046h10.643a.996.996 0 1 0 0-1.993H3.652c-.915 0-1.66-.744-1.66-1.66v-2.948h64.016v2.948c0 .916-.745 1.66-1.66 1.66h-8.301a.996.996 0 1 0 0 1.993h8.3A3.656 3.656 0 0 0 68 51.059V9.693a2.992 2.992 0 0 0-2.988-2.988ZM45.555 63.75c.183 0 .332.15.332.332v.996a.332.332 0 0 1-.332.332h-23.11a.332.332 0 0 1-.332-.332v-.996c0-.183.15-.332.332-.332h23.11Zm-16.317-9.038h9.524v7.046h-9.524v-7.046Zm31.884-52.08a.146.146 0 0 1 .206 0l2.18 2.18a.145.145 0 0 1 0 .206l-2.08 2.08-2.386-2.386 2.08-2.08Zm-3.49 3.49 2.387 2.385-.695.695-2.386-2.386.695-.695ZM55.53 8.224l2.386 2.386-11.787 11.787-2.386-2.386L55.53 8.225Zm-1.474 9.106a2.46 2.46 0 0 1 2.457 2.458 2.46 2.46 0 0 1-2.457 2.457 2.46 2.46 0 0 1-2.457-2.457l.002-.047 2.408-2.408c.016 0 .031-.003.047-.003Zm-9.657 6.155L41.45 24.69l1.204-2.948 1.744 1.744Zm21.61 22.633H1.992V9.693c0-.55.447-.996.996-.996H52.24l-1.519 1.519H16.867a.996.996 0 1 0 0 1.992H48.73l-7.026 7.026c-.198.2-.354.434-.46.696l-2.226 5.447c-.204.5-.089 1.07.293 1.453a1.336 1.336 0 0 0 1.453.293l5.447-2.225c.255-.104.482-.255.678-.445l3.03-3.03a4.454 4.454 0 0 0 4.137 2.815 4.454 4.454 0 0 0 4.449-4.45 4.454 4.454 0 0 0-2.814-4.135l3.445-3.445h3.362v30.4h-.528l-3.61-6.252a.996.996 0 1 0-1.725.996l3.035 5.256H45.754l-1.493-2.585 6.958-12.05 3.09 5.353a.996.996 0 1 0 1.726-.996l-3.298-5.711a1.736 1.736 0 0 0-1.518-.877c-.634 0-1.202.328-1.52.877L43.112 38.03l-8.454-14.643a1.736 1.736 0 0 0-1.519-.877c-.634 0-1.202.328-1.519.877l-2.246 3.89V16.602a2.327 2.327 0 0 0-2.324-2.324H9.961a2.327 2.327 0 0 0-2.324 2.324v21.782c0 .915.744 1.66 1.66 1.66h12.707l-1.48 2.565H5.503v-30.4h6.715a.996.996 0 1 0 0-1.992H5.17c-.915 0-1.66.745-1.66 1.66V42.94c0 .915.745 1.66 1.66 1.66H62.83c.915 0 1.66-.745 1.66-1.66V11.876c0-.915-.745-1.66-1.66-1.66h-1.702l1.52-1.519h2.365c.549 0 .996.447.996.996V46.12ZM27.382 22.118V38.05H9.629V22.118h17.753ZM9.629 20.126V16.6c0-.183.149-.332.332-.332h17.088c.184 0 .333.149.333.332v3.525H9.629Zm14.676 19.916h3.409c.915 0 1.66-.744 1.66-1.66v-2.11c.249.12.526.184.817.184.68 0 1.289-.351 1.629-.94l1.695-2.936a.206.206 0 0 1 .186-.108c.057 0 .135.02.186.108l1.045 1.81c.34.59.95.94 1.63.94.68 0 1.288-.35 1.628-.94l.26-.45 5.003 8.668h-20.63l1.482-2.566Zm5.069-7.104v-1.675l3.765-6.521 4.16 7.207-.738 1.278-.949-1.643a2.184 2.184 0 0 0-1.911-1.104c-.798 0-1.513.413-1.912 1.104l-1.599 2.769-.816-1.415Z"/></svg>