<svg xmlns="http://www.w3.org/2000/svg" width="74" height="74" fill="none"><g fill="#FC912D" clip-path="url(#a)"><path d="M37 0c-7.982 0-14.478 6.753-14.478 15.053V37c0 8.3 6.496 15.053 14.478 15.053 7.983 0 14.478-6.752 14.478-15.053V15.053C51.478 6.753 44.983 0 37 0Zm0 48.835c-5.688 0-10.393-4.46-11.145-10.226h22.289c-.75 5.767-5.455 10.226-11.144 10.226Zm11.261-13.444H25.74V15.053C25.74 8.526 30.791 3.217 37 3.217c6.21 0 11.261 5.31 11.261 11.836V35.39Z"/><path d="M59.522 28.956a1.61 1.61 0 0 0-1.609 1.61V37c0 11.531-9.382 20.913-20.913 20.913S16.087 48.531 16.087 37v-6.435a1.61 1.61 0 0 0-3.217 0V37c0 12.762 9.966 23.215 22.521 24.048v9.735h-8.043a1.61 1.61 0 0 0 0 3.217h19.304a1.61 1.61 0 0 0 0-3.217H38.61v-9.735C51.165 60.215 61.13 49.762 61.13 37v-6.435a1.61 1.61 0 0 0-1.608-1.609Z"/></g><defs><clipPath id="a"><path fill="#FC912D" d="M0 0h74v74H0z"/></clipPath></defs></svg>