<svg width="83" height="66" viewBox="0 0 83 66" fill="none" xmlns="http://www.w3.org/2000/svg">
<path d="M6 16.2295H21.3649C24.1263 16.2295 26.3649 18.4681 26.3649 21.2295V59.5808C26.3649 62.3423 24.1263 64.5808 21.3649 64.5808H6C3.23858 64.5808 1 62.3423 1 59.5808V21.2295C1 18.4681 3.23858 16.2295 6 16.2295Z" stroke="#FC912D" stroke-width="2"/>
<line x1="1.09448" y1="53.6353" x2="26.2702" y2="53.6353" stroke="#FC912D" stroke-width="2"/>
<line x1="1.09448" y1="22.9863" x2="26.2702" y2="22.9863" stroke="#FC912D" stroke-width="2"/>
<circle cx="13.6825" cy="59.5607" r="1.73649" fill="#FC912D" stroke="#FC912D" stroke-width="2"/>
<line x1="10.946" y1="19.7026" x2="16.419" y2="19.7026" stroke="#FC912D" stroke-width="2"/>
<path d="M26.6081 51.3514H79.3378C80.4424 51.3514 81.3378 50.4559 81.3378 49.3514V3C81.3378 1.89543 80.4424 1 79.3378 1H10C8.89543 1 8 1.89543 8 3V15.777" stroke="#FC912D" stroke-width="2"/>
<line x1="9.85132" y1="6.56738" x2="78.8108" y2="6.56738" stroke="#FC912D" stroke-width="2"/>
<line x1="49.2568" y1="44.8784" x2="81.0001" y2="44.8784" stroke="#FC912D" stroke-width="2"/>
<line x1="7.66211" y1="6.56738" x2="80.9999" y2="6.56739" stroke="#FC912D" stroke-width="2"/>
<line x1="26.2703" y1="44.8784" x2="38.3108" y2="44.8784" stroke="#FC912D" stroke-width="2"/>
<line x1="41.5945" y1="44.8784" x2="47.0675" y2="44.8784" stroke="#FC912D" stroke-width="2"/>
<line x1="30.7432" y1="28.3647" x2="30.7432" y2="23.9864" stroke="#FC912D" stroke-width="2"/>
<line x1="36.2163" y1="28.3647" x2="36.2163" y2="23.9864" stroke="#FC912D" stroke-width="2"/>
<line x1="41.6892" y1="28.3647" x2="41.6892" y2="23.9864" stroke="#FC912D" stroke-width="2"/>
<line x1="47.1621" y1="28.3647" x2="47.1621" y2="23.9864" stroke="#FC912D" stroke-width="2"/>
<line x1="52.6353" y1="28.3647" x2="52.6353" y2="23.9864" stroke="#FC912D" stroke-width="2"/>
<line x1="58.1082" y1="28.3647" x2="58.1082" y2="23.9864" stroke="#FC912D" stroke-width="2"/>
<line x1="63.5811" y1="28.3647" x2="63.5811" y2="23.9864" stroke="#FC912D" stroke-width="2"/>
<line x1="69.054" y1="28.3647" x2="69.054" y2="23.9864" stroke="#FC912D" stroke-width="2"/>
<line x1="74.5271" y1="28.3647" x2="74.5271" y2="23.9864" stroke="#FC912D" stroke-width="2"/>
<line x1="80" y1="28.3647" x2="80" y2="23.9864" stroke="#FC912D" stroke-width="2"/>
<line x1="38.8694" y1="50.5989" x2="33.7774" y2="64.5891" stroke="#FC912D" stroke-width="2"/>
<path d="M29 64.5811H60.8919" stroke="#FC912D" stroke-width="2"/>
<line x1="51.4661" y1="50.9431" x2="56.208" y2="63.9716" stroke="#FC912D" stroke-width="2"/>
</svg>
