<svg xmlns="http://www.w3.org/2000/svg" width="72" height="78" fill="none"><path fill="#FC912D" d="M52.355 72.968h19.358l-4.97-14.91a11.327 11.327 0 0 0-8.655-7.547l-13.282-2.49v-3.074a15.092 15.092 0 0 0 6.08-9.827c2.968-.502 5.243-3.075 5.243-6.184v-8.807C56.13 9.03 47.1 0 36 0 24.901 0 15.871 9.03 15.871 20.129v8.806c0 3.107 2.263 5.695 5.227 6.201a15.12 15.12 0 0 0 6.096 9.83v3.056l-13.283 2.49a11.329 11.329 0 0 0-8.656 7.548L.287 72.968h19.358v-2.516h-3.42l2.124-8.502-2.44-.61-2.279 9.112H3.777l3.866-11.597a8.814 8.814 0 0 1 6.732-5.872l8.014-1.502 2.05 9.22a3.776 3.776 0 0 0-2.278 3.46v10.065A3.779 3.779 0 0 0 25.935 78h20.13a3.779 3.779 0 0 0 3.774-3.774V64.16c0-1.548-.939-2.88-2.276-3.46l2.05-9.22 8.013 1.502a8.816 8.816 0 0 1 6.732 5.872l3.865 11.597H58.37L56.09 61.34l-2.44.609 2.125 8.502h-3.421v2.516Zm-5.217-21.951L45.4 58.835l-.869-3.48h-5.494l4.932-4.932 3.169.594Zm-3.943 9.37h-14.39l.63-2.516h13.13l.63 2.516ZM36 54.834l-6.29-6.29v-2.121A14.992 14.992 0 0 0 36 47.806a14.99 14.99 0 0 0 6.29-1.39v2.128L36 54.834Zm15.097-22.356v-7.084c1.46.52 2.516 1.905 2.516 3.543 0 1.638-1.056 3.02-2.516 3.541Zm-30.194.017a3.781 3.781 0 0 1-2.516-3.56c0-1.64 1.052-3.039 2.516-3.559v7.119Zm-2.516-8.56V20.13c0-9.712 7.9-17.613 17.613-17.613 9.712 0 17.613 7.9 17.613 17.613v3.807a6.231 6.231 0 0 0-2.556-1.168 3.031 3.031 0 0 0-2.997-2.639c-.799 0-1.582.325-2.21.954a13.817 13.817 0 0 1-7.734 3.92l.08-.161c.21-.42.32-.89.32-1.359v-.317a3.04 3.04 0 0 0-3.037-3.037c-.799 0-1.581.325-2.147.89a14.058 14.058 0 0 1-9.913 4.142v-2.516h-1.258c-1.421 0-2.72.492-3.774 1.29Zm5.032 8.775v-5.033A16.553 16.553 0 0 0 35.11 22.8c.303-.305.891-.057.891.367v.317c0 .08-.019.161-.055.234l-1.98 3.96H36c4.393 0 8.522-1.71 11.69-4.878.304-.305.89-.057.89.367v9.544c0 6.937-5.643 12.58-12.58 12.58s-12.58-5.643-12.58-12.58Zm4.613 17.713 4.931 4.932H27.47l-.87 3.48-1.737-7.818 3.17-.594Zm-2.096 25.06a1.26 1.26 0 0 1-1.259-1.257V64.16a1.26 1.26 0 0 1 1.259-1.258h3.913a8.773 8.773 0 0 0-2.655 6.29 8.773 8.773 0 0 0 2.655 6.29h-3.913Zm10.064 0a6.298 6.298 0 0 1-6.29-6.29 6.298 6.298 0 0 1 6.29-6.29 6.298 6.298 0 0 1 6.29 6.29 6.298 6.298 0 0 1-6.29 6.29Zm11.323-1.257a1.26 1.26 0 0 1-1.258 1.258H42.15a8.773 8.773 0 0 0 2.655-6.29 8.773 8.773 0 0 0-2.655-6.29h3.914a1.26 1.26 0 0 1 1.258 1.257v10.065Z"/></svg>